<?xml version="1.0" encoding="utf-8"?>
<!-- Generator: Adobe Illustrator 23.0.0, SVG Export Plug-In . SVG Version: 6.00 Build 0)  -->
<svg version="1.1" id="Camada_1" xmlns="http://www.w3.org/2000/svg" xmlns:xlink="http://www.w3.org/1999/xlink" x="0px" y="0px"
	 viewBox="0 0 72 48" style="enable-background:new 0 0 72 48;" xml:space="preserve">
<style type="text/css">
	.st0{fill:#C5E1A5;}
	.st1{fill:#41A4F9;}
</style>
<g transform="translate(72 47.999) rotate(180)">
	<path class="st0" d="M72,8h-4.2l0,0h-6.7c-0.9,0-1.2-0.6-0.7-1.4c0.3-0.6,0.4-1.2,0.4-1.8C60.8,2.1,58.6,0,56,0
		c-2.6,0-4.8,2.1-4.8,4.8c0,0.6,0.1,1.3,0.4,1.8C52.1,7.4,51.7,8,50.8,8h-6.7H40v4.2l0,0v6.7c0,0.9,0.6,1.2,1.3,0.7
		c0.6-0.3,1.2-0.4,1.8-0.4c2.7,0,4.8,2.2,4.8,4.8c0,2.6-2.1,4.8-4.8,4.8c-0.6,0-1.3-0.1-1.9-0.4c-0.7-0.5-1.3-0.1-1.3,0.7v9.2
		c0,0,0,0,0,0.1V40h1.6h9.2c0.9,0,1.2,0.6,0.7,1.3c-0.3,0.6-0.4,1.2-0.4,1.8c0,2.7,2.1,4.8,4.8,4.8s4.8-2.1,4.8-4.8c0,0,0,0,0,0
		c0-0.6-0.1-1.3-0.4-1.8c-0.5-0.7-0.1-1.4,0.7-1.3h9.2h0H72v-4.2l0,0v-6.7c0-0.9-0.6-1.2-1.3-0.7c-0.6,0.3-1.2,0.4-1.9,0.4
		c-2.7,0-4.8-2.2-4.8-4.8c0-2.6,2.1-4.8,4.8-4.8c0.6,0,1.3,0.1,1.8,0.4c0.7,0.5,1.4,0.1,1.4-0.7v-6.7l0,0L72,8z"/>
	<path class="st1" d="M8,8v4.2l0,0v6.7c0,0.9-0.6,1.2-1.4,0.7c-0.6-0.3-1.2-0.4-1.9-0.4C2.2,19.2,0,21.3,0,24s2.1,4.8,4.8,4.8
		c0,0,0,0,0,0c0.6,0,1.3-0.1,1.8-0.4C7.4,27.9,8,28.3,8,29.2v6.7l0,0V40h10.8c0.9,0,1.2-0.6,0.7-1.3c-0.3-0.6-0.4-1.2-0.4-1.8
		c0-2.7,2.1-4.8,4.8-4.8c2.7,0,4.8,2.1,4.8,4.8c0,0.6-0.1,1.3-0.4,1.9c-0.5,0.7-0.1,1.3,0.7,1.3h9.2h0.1H40v-1.6v-9.2
		c0-0.9,0.6-1.2,1.3-0.7c0.6,0.3,1.2,0.4,1.9,0.4c2.7,0,4.8-2.2,4.8-4.8c0-2.6-2.1-4.8-4.8-4.8c-0.6,0-1.3,0.1-1.8,0.4
		c-0.7,0.5-1.4,0.1-1.4-0.7V9.6c0,0,0,0,0,0V8H29.2c-0.9,0-1.2,0.6-0.7,1.3c0.3,0.6,0.4,1.2,0.4,1.9c0,2.7-2.1,4.8-4.8,4.8
		c-2.7,0-4.8-2.1-4.8-4.8c0-0.6,0.1-1.3,0.4-1.8C20.1,8.6,19.7,8,18.8,8h-6.7l0,0L8,8z"/>
</g>
</svg>
