<svg xmlns="http://www.w3.org/2000/svg" width="544" height="18.896" viewBox="0 0 544 18.896"><defs><style>.a{fill:#ff9800;}</style></defs><path class="a" d="M910.508,120.418a48.976,48.976,0,0,1-7.216-.507,1.492,1.492,0,0,1,.443-2.951,45.855,45.855,0,0,0,6.773.474,1.492,1.492,0,1,1,0,2.984Zm-196.744,0c-1.059,0-2.1-.03-3.1-.087a1.492,1.492,0,0,1,.171-2.979,51.166,51.166,0,0,0,7.7-.144,1.492,1.492,0,0,1,.295,2.969C717.228,120.337,715.522,120.418,713.764,120.418Zm-295.093,0c-1.77,0-3.489-.082-5.109-.245a1.492,1.492,0,0,1,.3-2.969,51.011,51.011,0,0,0,7.7.151,1.492,1.492,0,0,1,.168,2.979C420.737,120.389,419.708,120.418,418.671,120.418Zm99.345-.009a1.492,1.492,0,0,1-.026-2.984,42.083,42.083,0,0,0,7.62-.78,1.492,1.492,0,1,1,.587,2.925,45.059,45.059,0,0,1-8.154.839Zm96.365,0h-.028a44.952,44.952,0,0,1-8.154-.846,1.492,1.492,0,1,1,.591-2.924,42.122,42.122,0,0,0,7.618.787,1.492,1.492,0,0,1-.027,2.983Zm200.677-.07a1.492,1.492,0,0,1-.082-2.981,38.507,38.507,0,0,0,7.549-1.128,1.492,1.492,0,0,1,.746,2.889,41.429,41.429,0,0,1-8.129,1.218Zm-7.93-.162c-.05,0-.1,0-.152-.007a38.538,38.538,0,0,1-8.072-1.657,1.492,1.492,0,1,1,.919-2.839,35.547,35.547,0,0,0,7.454,1.528,1.491,1.491,0,0,1-.149,2.975Zm-184.83-.234a1.492,1.492,0,0,1-.216-2.968,33.7,33.7,0,0,0,7.347-1.912,1.492,1.492,0,0,1,1.076,2.783,36.69,36.69,0,0,1-7.988,2.081A1.639,1.639,0,0,1,622.3,119.942Zm-112.2-.007a1.5,1.5,0,0,1-.221-.016,36.6,36.6,0,0,1-7.986-2.09,1.492,1.492,0,0,1,1.08-2.782,33.708,33.708,0,0,0,7.344,1.921,1.492,1.492,0,0,1-.217,2.967Zm-80.618-.781a1.492,1.492,0,0,1-.374-2.936,33.621,33.621,0,0,0,7.08-2.735,1.492,1.492,0,1,1,1.371,2.65,36.567,36.567,0,0,1-7.7,2.973A1.467,1.467,0,0,1,429.48,119.154Zm273.437-.01a1.523,1.523,0,0,1-.377-.048,36.619,36.619,0,0,1-7.7-2.982,1.492,1.492,0,0,1,1.373-2.649,33.608,33.608,0,0,0,7.079,2.743,1.492,1.492,0,0,1-.376,2.936Zm23.537-.535A1.492,1.492,0,0,1,726,115.7a35.688,35.688,0,0,0,6.946-3.121,1.492,1.492,0,0,1,1.483,2.59,38.611,38.611,0,0,1-7.518,3.371A1.475,1.475,0,0,1,726.454,118.609ZM405.946,118.6a1.487,1.487,0,0,1-.457-.072,38.637,38.637,0,0,1-7.512-3.38,1.491,1.491,0,0,1,1.483-2.588,35.748,35.748,0,0,0,6.943,3.128,1.492,1.492,0,0,1-.457,2.912Zm489.906-.686a1.476,1.476,0,0,1-.542-.1,45.03,45.03,0,0,1-7.3-3.736,1.492,1.492,0,0,1,1.566-2.539,42.246,42.246,0,0,0,6.82,3.5,1.492,1.492,0,0,1-.543,2.882Zm-362.406-.74a1.492,1.492,0,0,1-.618-2.851,52.269,52.269,0,0,0,6.729-3.79,1.492,1.492,0,0,1,1.61,2.512,54.973,54.973,0,0,1-7.106,4A1.484,1.484,0,0,1,533.446,117.171Zm65.51-.016a1.472,1.472,0,0,1-.617-.135,55.062,55.062,0,0,1-7.1-4,1.492,1.492,0,0,1,1.61-2.512,52.478,52.478,0,0,0,6.727,3.8,1.492,1.492,0,0,1-.619,2.85Zm231.338-.834a1.492,1.492,0,0,1-.684-2.818c2.241-1.156,4.317-2.5,6.323-3.8l.353-.228a1.492,1.492,0,1,1,1.62,2.505l-.351.227a76.675,76.675,0,0,1-6.578,3.946A1.492,1.492,0,0,1,830.294,116.321Zm-38.155-1a1.478,1.478,0,0,1-.742-.2c-1.63-.935-3.177-1.937-4.673-2.9-.7-.452-1.4-.9-2.108-1.352a1.492,1.492,0,1,1,1.59-2.524c.719.453,1.429.912,2.139,1.371,1.464.947,2.976,1.927,4.537,2.823a1.491,1.491,0,0,1-.743,2.785Zm-155.1-.978a1.492,1.492,0,0,1-.783-2.762c1-.613,1.967-1.242,2.938-1.87,1.224-.792,2.488-1.61,3.793-2.389a1.492,1.492,0,1,1,1.53,2.561c-1.258.752-2.5,1.555-3.7,2.333-.99.641-1.98,1.281-3,1.906A1.483,1.483,0,0,1,637.035,114.344Zm-141.669-.022a1.487,1.487,0,0,1-.781-.222c-1-.615-1.975-1.247-2.95-1.878-1.215-.786-2.472-1.6-3.746-2.358a1.492,1.492,0,1,1,1.527-2.563c1.322.788,2.6,1.616,3.84,2.416.956.619,1.913,1.239,2.894,1.843a1.492,1.492,0,0,1-.784,2.762ZM443.674,112.2a1.492,1.492,0,0,1-.811-2.745,65.274,65.274,0,0,1,7.009-4.1,1.492,1.492,0,1,1,1.307,2.682,62.793,62.793,0,0,0-6.7,3.923A1.485,1.485,0,0,1,443.674,112.2Zm245.055-.021a1.5,1.5,0,0,1-.809-.239,61.862,61.862,0,0,0-6.7-3.918,1.492,1.492,0,1,1,1.3-2.685,64.6,64.6,0,0,1,7.014,4.1,1.492,1.492,0,0,1-.811,2.745Zm51.687-1.035a1.491,1.491,0,0,1-.8-2.753,49.508,49.508,0,0,1,7.2-3.878,1.492,1.492,0,0,1,1.162,2.749,46.635,46.635,0,0,0-6.769,3.652A1.482,1.482,0,0,1,740.416,111.14Zm-348.429-.021a1.482,1.482,0,0,1-.794-.23,46.513,46.513,0,0,0-6.771-3.646,1.492,1.492,0,0,1,1.158-2.75,49.249,49.249,0,0,1,7.205,3.872,1.492,1.492,0,0,1-.8,2.754Zm490.088-1.071a1.487,1.487,0,0,1-.761-.21,38.009,38.009,0,0,0-6.885-3.3,1.492,1.492,0,1,1,.992-2.814,40.955,40.955,0,0,1,7.418,3.549,1.493,1.493,0,0,1-.764,2.775ZM547.121,109.1a1.492,1.492,0,0,1-.718-2.8,37.025,37.025,0,0,1,7.608-3.186,1.492,1.492,0,0,1,.833,2.865,34.151,34.151,0,0,0-7.009,2.938A1.489,1.489,0,0,1,547.121,109.1Zm38.161-.019a1.484,1.484,0,0,1-.713-.183,34.149,34.149,0,0,0-7.013-2.931,1.492,1.492,0,1,1,.831-2.866A37.063,37.063,0,0,1,586,106.282a1.492,1.492,0,0,1-.716,2.8Zm258.666-.877a1.492,1.492,0,0,1-.656-2.833,36.022,36.022,0,0,1,7.781-2.77,1.492,1.492,0,0,1,.672,2.907,33.167,33.167,0,0,0-7.144,2.544A1.486,1.486,0,0,1,843.948,108.206Zm-65.528-.862a1.477,1.477,0,0,1-.577-.117,33.162,33.162,0,0,0-7.285-2.113,1.492,1.492,0,1,1,.509-2.94,36.052,36.052,0,0,1,7.932,2.3,1.492,1.492,0,0,1-.579,2.867Zm-127.529-.69a1.492,1.492,0,0,1-.5-2.9,37.426,37.426,0,0,1,8.034-1.873,1.492,1.492,0,0,1,.367,2.961,34.543,34.543,0,0,0-7.4,1.722A1.483,1.483,0,0,1,650.891,106.654Zm-169.385-.014a1.468,1.468,0,0,1-.5-.087,34.617,34.617,0,0,0-7.4-1.714,1.492,1.492,0,0,1,.365-2.961A37.466,37.466,0,0,1,482,103.742a1.492,1.492,0,0,1-.5,2.9Zm-23.515-1.1a1.492,1.492,0,0,1-.334-2.946,43.073,43.073,0,0,1,8.145-1.033,1.492,1.492,0,0,1,.111,2.982,40.068,40.068,0,0,0-7.586.959A1.5,1.5,0,0,1,457.991,105.538Zm216.415-.009a1.541,1.541,0,0,1-.334-.038,40.165,40.165,0,0,0-7.588-.952,1.491,1.491,0,1,1,.109-2.981,43.141,43.141,0,0,1,8.145,1.024,1.492,1.492,0,0,1-.332,2.947Zm80.6-.379a1.492,1.492,0,0,1-.256-2.961,47.062,47.062,0,0,1,8.161-.667h0a1.491,1.491,0,1,1,0,2.983,44.226,44.226,0,0,0-7.648.622A1.538,1.538,0,0,1,755,105.15ZM377.4,105.142a1.493,1.493,0,0,1-.257-.021,44.165,44.165,0,0,0-7.648-.616,1.491,1.491,0,1,1,0-2.983,47.18,47.18,0,0,1,8.159.659,1.492,1.492,0,0,1-.254,2.961Zm489.808-.3a1.633,1.633,0,0,1-.183-.011,47.305,47.305,0,0,0-5.7-.329q-1.023,0-1.989.038a1.492,1.492,0,1,1-.113-2.982q1.02-.039,2.1-.039a50.427,50.427,0,0,1,6.064.35,1.492,1.492,0,0,1-.179,2.973Zm-304.975-.19a1.492,1.492,0,0,1-.114-2.979,54.8,54.8,0,0,1,8.164,0,1.492,1.492,0,1,1-.23,2.975,51.834,51.834,0,0,0-7.7,0C562.309,104.654,562.269,104.655,562.23,104.655Z" transform="translate(-368 -101.522)"/></svg>