<?xml version="1.0" encoding="utf-8"?>
<!-- Generator: Adobe Illustrator 23.0.0, SVG Export Plug-In . SVG Version: 6.00 Build 0)  -->
<svg version="1.1" id="Camada_1" xmlns="http://www.w3.org/2000/svg" xmlns:xlink="http://www.w3.org/1999/xlink" x="0px" y="0px"
	 viewBox="0 0 72 48" style="enable-background:new 0 0 72 48;" xml:space="preserve">
<style type="text/css">
	.st0{fill:#F25D8F;}
</style>
<path class="st0" d="M72,8.1h-4.2l0,0h-6.7c-0.9,0-1.2-0.6-0.7-1.4c0.3-0.6,0.4-1.2,0.4-1.8c0-2.7-2.2-4.8-4.8-4.8s-4.8,2.1-4.8,4.8
	c0,0.6,0.1,1.3,0.4,1.8c0.5,0.8,0.1,1.4-0.8,1.4h-6.7H40v4.2l0,0V19c0,0.9,0.6,2.2,1.3,1.7c0.6-0.3,1.2-0.4,1.8-0.4
	c2.7,0,4.8,1.2,4.8,3.8s-2.1,4.8-4.8,4.8c-0.6,0-1.3-0.1-1.9-0.4c-0.7-0.5-1.3-0.1-1.3,0.7v9.2c0,0,0,0,0,0.1v1.6h1.6h9.2
	c0.9,0,1.2,0.6,0.7,1.3C51.1,42,51,42.6,51,43.2c0,2.7,2.1,4.8,4.8,4.8s4.8-2.1,4.8-4.8l0,0c0-0.6-0.1-1.3-0.4-1.8
	c-0.5-0.7-0.1-1.4,0.7-1.3h9.2l0,0H72v-4.2l0,0v-6.7c0-0.9-0.6-1.2-1.3-0.7c-0.6,0.3-1.2,0.4-1.9,0.4c-2.7,0-4.8-2.2-4.8-4.8
	s2.1-4.8,4.8-4.8c0.6,0,1.3,0.1,1.8,0.4c0.7,0.5,1.4,0.1,1.4-0.7v-6.7l0,0V8.1z"/>
<g>
	<path class="st0" d="M39,9.1v0.6v9.5c0,1.1,0.8,1.9,1.8,1.9c0.4,0,0.8-0.1,1.2-0.4c0.3-0.2,0.7-0.2,1.3-0.2c2.1,0,3.8,1.7,3.8,3.8
		s-1.7,3.8-3.8,3.8c-0.6,0-1-0.1-1.4-0.3c-0.4-0.2-0.8-0.4-1.1-0.4c-0.8,0-1.7,0.6-1.7,1.9v9.2v0.6h-0.7h-0.1h-8.9
		c0.4-0.8,0.4-1.6,0.4-2.2c0-3.3-2.5-5.8-5.8-5.8s-5.8,2.5-5.8,5.8c0,0.8,0.1,1.5,0.4,2.1H9V36v-6.7c0-1.2-0.7-2-1.7-2
		c-0.4,0-0.8,0.1-1.2,0.4c-0.3,0.2-0.7,0.3-1.3,0.3c-2.1,0-3.8-1.7-3.8-3.8c0-2.1,1.7-3.8,3.7-3.8c0.6,0,1,0.1,1.4,0.3
		c0.4,0.2,0.8,0.4,1.2,0.4C8.1,20.9,9,20.3,9,19v-6.7V9.1h3.1h6.7c-0.4,0.7-0.5,1.6-0.5,2.2c0,3.3,2.5,5.8,5.8,5.8s5.8-2.5,5.8-5.8
		c0-0.9-0.1-1.5-0.4-2.2H39 M40,8.1H29.2c-0.9,0-1.2,0.6-0.7,1.3c0.3,0.6,0.4,1.2,0.4,1.9c0,2.7-2.1,4.8-4.8,4.8s-4.8-2.1-4.8-4.8
		c0-0.6,0.1-1.3,0.4-1.8c0.4-0.8,0-1.4-0.9-1.4h-6.7H8v4.2V19c0,0.6-0.3,0.9-0.7,0.9c-0.2,0-0.4-0.1-0.7-0.2
		c-0.6-0.3-1.2-0.4-1.9-0.4c-2.5,0-4.7,2.1-4.7,4.8s2.1,4.8,4.8,4.8c0.6,0,1.3-0.1,1.8-0.4c0.2-0.1,0.5-0.2,0.7-0.2
		c0.5,0,0.7,0.4,0.7,1V36v4.1h10.8c0.9,0,1.2-0.6,0.7-1.3c-0.3-0.6-0.4-1.2-0.4-1.8c0-2.7,2.1-4.8,4.8-4.8s4.8,2.1,4.8,4.8
		c0,0.6-0.1,1.3-0.4,1.9c-0.5,0.7-0.1,1.3,0.7,1.3h9.2h0.1H40v-1.6v-9.2c0-0.6,0.3-0.9,0.7-0.9c0.2,0,0.4,0.1,0.6,0.2
		c0.6,0.3,1.2,0.4,1.9,0.4c2.7,0,4.8-2.2,4.8-4.8s-2.1-4.8-4.8-4.8c-0.6,0-1.3,0.1-1.8,0.4c-0.2,0.2-0.4,0.2-0.6,0.2
		c-0.4,0-0.8-0.4-0.8-0.9V9.7V8.1L40,8.1z"/>
</g>
</svg>
