<svg xmlns="http://www.w3.org/2000/svg" width="120" height="79.998" viewBox="0 0 120 79.998"><defs><style>.a{fill:#b3e5fc;}.b{fill:#f48fb1;}</style></defs><path class="a" d="M598.667,521.327h-6.986v.005H580.588c-1.466,0-2.022-1.011-1.239-2.251A6.17,6.17,0,0,0,580,516a8,8,0,0,0-16,0,6.108,6.108,0,0,0,.644,3.079c.789,1.244.232,2.255-1.24,2.249l-11.086,0v0h-6.986v6.986h0v11.1c0,1.467,1.01,2.022,2.249,1.24a6.1,6.1,0,0,1,3.079-.654,8,8,0,0,1,.006,16,6.082,6.082,0,0,1-3.085-.649c-1.239-.782-2.25-.226-2.249,1.24V572c0,.031,0,.06,0,.09v2.575H548l15.413,0c1.465,0,2.021,1.01,1.238,2.25A6.1,6.1,0,0,0,564,580a8,8,0,1,0,16,0,6.107,6.107,0,0,0-.643-3.077c-.787-1.244-.232-2.255,1.239-2.25l15.4-.006c.025,0,.05,0,.076,0h2.594v-6.985h0V556.589c-.005-1.461-1.011-2.022-2.249-1.239a6.187,6.187,0,0,1-3.085.648,8,8,0,0,1,0-16,6.125,6.125,0,0,1,3.083.648c1.244.787,2.256.231,2.256-1.234l0-11.1h0Z" transform="translate(-478.668 -508)"/><path class="b" d="M505.328,518.662v6.986h0v11.094c0,1.466-1.011,2.022-2.25,1.239a6.18,6.18,0,0,0-3.084-.647,8,8,0,1,0,0,16,6.1,6.1,0,0,0,3.079-.642c1.245-.789,2.255-.234,2.25,1.24l0,11.086h0V572H523.41c1.468,0,2.022-1.011,1.239-2.249a6.115,6.115,0,0,1-.653-3.08,8,8,0,1,1,16,0,6.1,6.1,0,0,1-.648,3.085c-.784,1.237-.227,2.25,1.239,2.249H556c.03,0,.059,0,.089,0h2.576v-2.66l.005-15.413c0-1.465,1.01-2.023,2.248-1.237a6.1,6.1,0,0,0,3.085.645,8,8,0,0,0,0-15.995,6.111,6.111,0,0,0-3.078.641c-1.244.789-2.255.234-2.251-1.237l0-15.4c0-.025,0-.051,0-.076v-2.594h-6.986v0H540.588c-1.461,0-2.023,1.011-1.237,2.248A6.2,6.2,0,0,1,540,524a8,8,0,1,1-16,0,6.134,6.134,0,0,1,.646-3.082c.789-1.244.233-2.256-1.233-2.256l-11.1,0v0Z" transform="translate(-491.999 -505.334)"/></svg>