<svg xmlns="http://www.w3.org/2000/svg" width="146.001" height="97.999" viewBox="0 0 146.001 97.999"><defs><style>.a{fill:#ffd54f;}.a,.b{stroke:#ffd54f;stroke-width:2px;}.b{fill:none;}</style></defs><g transform="translate(1 1)"><path class="a" d="M609.335,523.993h-8.383V524H587.64c-1.759,0-2.427-1.214-1.486-2.7a7.4,7.4,0,0,0,.777-3.7,9.6,9.6,0,0,0-19.2,0,7.328,7.328,0,0,0,.773,3.695c.946,1.492.279,2.706-1.488,2.7l-13.3,0v0h-8.383v8.383h0v13.315c0,1.761,1.212,2.427,2.7,1.488a7.319,7.319,0,0,1,3.695-.784,9.6,9.6,0,0,1,.008,19.2,7.3,7.3,0,0,1-3.7-.779c-1.487-.939-2.7-.271-2.7,1.488V584.8c0,.038,0,.072,0,.108V588h3.193l18.5.006c1.758,0,2.425,1.212,1.485,2.7a7.318,7.318,0,0,0-.776,3.7,9.6,9.6,0,1,0,19.2,0,7.328,7.328,0,0,0-.771-3.693c-.945-1.492-.279-2.706,1.487-2.7L606.132,588c.03,0,.06,0,.091,0h3.113v-8.382h0V566.307c-.006-1.753-1.214-2.427-2.7-1.487a7.426,7.426,0,0,1-3.7.777,9.6,9.6,0,0,1-.006-19.2,7.351,7.351,0,0,1,3.7.777c1.493.945,2.708.277,2.708-1.481l0-13.317h0Z" transform="translate(-465.334 -508)"/><path class="b" d="M507.993,518.662v8.384h0v13.312c0,1.759-1.214,2.427-2.7,1.486a7.416,7.416,0,0,0-3.7-.777,9.6,9.6,0,1,0,0,19.2,7.313,7.313,0,0,0,3.695-.771c1.494-.947,2.706-.281,2.7,1.488l0,13.3h0v8.383h21.7c1.761,0,2.427-1.214,1.487-2.7a7.338,7.338,0,0,1-.783-3.7,9.6,9.6,0,1,1,19.2-.006,7.322,7.322,0,0,1-.777,3.7c-.941,1.485-.273,2.7,1.486,2.7H568.8c.036,0,.07,0,.107-.006H572v-3.192l.006-18.5c0-1.758,1.212-2.427,2.7-1.485a7.316,7.316,0,0,0,3.7.774,9.6,9.6,0,0,0,0-19.194,7.334,7.334,0,0,0-3.693.769c-1.492.946-2.706.281-2.7-1.485L572,521.866c0-.03,0-.061,0-.091v-3.113h-8.383v0H550.306c-1.753,0-2.427,1.213-1.485,2.7a7.437,7.437,0,0,1,.776,3.7,9.6,9.6,0,1,1-19.2,0,7.361,7.361,0,0,1,.775-3.7c.947-1.493.279-2.708-1.479-2.708l-13.317,0v0Z" transform="translate(-491.999 -502.669)"/></g></svg>